<?xml version="1.0" encoding="UTF-8" standalone="no"?>
<!DOCTYPE svg PUBLIC "-//W3C//DTD SVG 1.1//EN" "http://www.w3.org/Graphics/SVG/1.1/DTD/svg11.dtd">
<svg width="100%" height="100%" viewBox="0 0 24 24" version="1.1" xmlns="http://www.w3.org/2000/svg" xmlns:xlink="http://www.w3.org/1999/xlink" xml:space="preserve" xmlns:serif="http://www.serif.com/" style="fill-rule:evenodd;clip-rule:evenodd;stroke-linejoin:round;stroke-miterlimit:2;">
    <path d="M0.911,16.907C0.399,17.451 0.399,18.299 0.911,18.843C0.911,18.843 0.912,18.844 0.912,18.844C1.194,19.144 1.588,19.314 2,19.314C2.412,19.314 2.806,19.144 3.088,18.844C4.551,17.289 7.15,14.528 8.71,12.871C9.435,12.101 9.435,10.899 8.71,10.129C7.15,8.472 4.551,5.711 3.088,4.156C2.806,3.856 2.412,3.686 2,3.686C1.588,3.686 1.194,3.856 0.912,4.156C0.912,4.156 0.911,4.157 0.911,4.157C0.399,4.701 0.399,5.549 0.911,6.093C2.589,7.876 6,11.5 6,11.5C6,11.5 2.589,15.124 0.911,16.907ZM10.5,16C10.102,16 9.721,16.158 9.439,16.439C9.158,16.721 9,17.102 9,17.5C9,17.898 9.158,18.279 9.439,18.561C9.721,18.842 10.102,19 10.5,19C13.374,19 19.626,19 22.5,19C22.898,19 23.279,18.842 23.561,18.561C23.842,18.279 24,17.898 24,17.5C24,17.102 23.842,16.721 23.561,16.439C23.279,16.158 22.898,16 22.5,16C19.626,16 13.374,16 10.5,16Z" style="fill:currentColor; fill-rule:nonzero;"/>
</svg>
