<?xml version="1.0" encoding="UTF-8" standalone="no"?>
<!DOCTYPE svg PUBLIC "-//W3C//DTD SVG 1.1//EN" "http://www.w3.org/Graphics/SVG/1.1/DTD/svg11.dtd">
<svg width="100%" height="100%" viewBox="0 0 24 24" version="1.1" xmlns="http://www.w3.org/2000/svg" xmlns:xlink="http://www.w3.org/1999/xlink" xml:space="preserve" xmlns:serif="http://www.serif.com/" style="fill-rule:evenodd;clip-rule:evenodd;stroke-linejoin:round;stroke-miterlimit:2;">
    <path d="M22,5.828C22,5.298 21.789,4.789 21.414,4.414C20.452,3.452 18.548,1.548 17.586,0.586C17.211,0.211 16.702,0 16.172,-0C13.866,0 7.328,0 4,0C3.47,-0 2.961,0.211 2.586,0.586C2.211,0.961 2,1.47 2,2C2,6.52 2,17.48 2,22C2,22.53 2.211,23.039 2.586,23.414C2.961,23.789 3.47,24 4,24C7.832,24 16.168,24 20,24C20.53,24 21.039,23.789 21.414,23.414C21.789,23.039 22,22.53 22,22C22,17.89 22,8.643 22,5.828ZM14,2L14,6C14,7.105 14.895,8 16,8L20,8L20,22L4,22L4,2L14,2ZM17,19C17,19.552 16.552,20 16,20C14.084,20 9.916,20 8,20C7.448,20 7,19.552 7,19C7,18.448 7.448,18 8,18C9.916,18 14.084,18 16,18C16.552,18 17,18.448 17,19ZM17,15C17,15.552 16.552,16 16,16C14.084,16 9.916,16 8,16C7.448,16 7,15.552 7,15C7,14.448 7.448,14 8,14C9.916,14 14.084,14 16,14C16.552,14 17,14.448 17,15ZM17,11C17,11.552 16.552,12 16,12C14.084,12 9.916,12 8,12C7.448,12 7,11.552 7,11C7,10.448 7.448,10 8,10C9.916,10 14.084,10 16,10C16.552,10 17,10.448 17,11ZM12,7C12,7.265 11.895,7.52 11.707,7.707C11.52,7.895 11.265,8 11,8C10.129,8 8.871,8 8,8C7.735,8 7.48,7.895 7.293,7.707C7.105,7.52 7,7.265 7,7C7,6.735 7.105,6.48 7.293,6.293C7.48,6.105 7.735,6 8,6C8.871,6 10.129,6 11,6C11.265,6 11.52,6.105 11.707,6.293C11.895,6.48 12,6.735 12,7ZM20,6L16,6L16,2L20,6Z" style="fill:currentColor;"/>
</svg>
