<?xml version="1.0" encoding="UTF-8" standalone="no"?>
<!DOCTYPE svg PUBLIC "-//W3C//DTD SVG 1.1//EN" "http://www.w3.org/Graphics/SVG/1.1/DTD/svg11.dtd">
<svg width="100%" height="100%" viewBox="0 0 24 24" version="1.1" xmlns="http://www.w3.org/2000/svg" xmlns:xlink="http://www.w3.org/1999/xlink" xml:space="preserve" xmlns:serif="http://www.serif.com/" style="fill-rule:evenodd;clip-rule:evenodd;stroke-linejoin:round;stroke-miterlimit:2;">
    <path d="M0,21C-0,21.265 0.105,21.52 0.293,21.707C0.48,21.895 0.735,22 1,22C4.904,22 19.096,22 23,22C23.552,22 24,21.552 24,21C24,18.127 24,9.873 24,7C24,6.448 23.552,6 23,6C20.578,6 14.422,6 12,6C11.448,6 11,5.552 11,5C11,4.389 11,3.611 11,3C11,2.448 10.552,2 10,2C7.908,2 3.092,2 1,2C0.448,2 -0,2.448 -0,3C0,6.414 0,17.586 0,21ZM22,8L22,20L2,20L2,8L22,8ZM9,4L9,6L2,6L2,4L9,4Z" style="fill:currentColor;"/>
</svg>
