<?xml version="1.0" encoding="UTF-8" standalone="no"?>
<!DOCTYPE svg PUBLIC "-//W3C//DTD SVG 1.1//EN" "http://www.w3.org/Graphics/SVG/1.1/DTD/svg11.dtd">
<svg width="100%" height="100%" viewBox="0 0 24 24" version="1.1" xmlns="http://www.w3.org/2000/svg" xmlns:xlink="http://www.w3.org/1999/xlink" xml:space="preserve" xmlns:serif="http://www.serif.com/" style="fill-rule:evenodd;clip-rule:evenodd;stroke-linejoin:round;stroke-miterlimit:2;">
  <path d="M0,1L0,22L24,22L24,1L0,1ZM1,2L23,2L23,21L1,21L1,2ZM8.595,11.658C8.595,11.658 5.13,15.124 3.997,16.256C3.802,16.451 3.802,16.768 3.997,16.963C4.192,17.159 4.509,17.159 4.704,16.963C5.717,15.951 8.619,13.048 9.644,12.023C9.845,11.823 9.845,11.497 9.644,11.296C8.619,10.27 5.711,7.361 4.701,6.351C4.608,6.258 4.482,6.205 4.351,6.205C4.219,6.205 4.093,6.258 4,6.351C3.999,6.352 3.998,6.353 3.997,6.354C3.802,6.549 3.802,6.865 3.997,7.061C5.13,8.193 8.595,11.658 8.595,11.658ZM20,16.5C20,16.367 19.947,16.24 19.854,16.146C19.76,16.053 19.633,16 19.5,16L10.508,16C10.375,16 10.248,16.053 10.154,16.146C10.06,16.24 10.008,16.367 10.008,16.5C10.008,16.633 10.06,16.76 10.154,16.854C10.248,16.947 10.375,17 10.508,17L19.5,17C19.633,17 19.76,16.947 19.854,16.854C19.947,16.76 20,16.633 20,16.5Z" style="fill:currentColor;fill-rule:nonzero;"/>
</svg>
