<?xml version="1.0" encoding="UTF-8" standalone="no"?>
<!DOCTYPE svg PUBLIC "-//W3C//DTD SVG 1.1//EN" "http://www.w3.org/Graphics/SVG/1.1/DTD/svg11.dtd">
<svg width="100%" height="100%" viewBox="0 0 24 24" version="1.1" xmlns="http://www.w3.org/2000/svg" xmlns:xlink="http://www.w3.org/1999/xlink" xml:space="preserve" xmlns:serif="http://www.serif.com/" style="fill-rule:evenodd;clip-rule:evenodd;stroke-linejoin:round;stroke-miterlimit:2;">
    <path d="M0,2L0,22L24,22L24,2L0,2ZM1,3L23,3L23,21L1,21L1,3ZM17,8.914C17,8.649 16.895,8.395 16.707,8.207C16.226,7.726 15.274,6.774 14.793,6.293C14.605,6.105 14.351,6 14.086,6L8,6C7.735,6 7.48,6.105 7.293,6.293C7.105,6.48 7,6.735 7,7L7,17C7,17.265 7.105,17.52 7.293,17.707C7.48,17.895 7.735,18 8,18L16,18C16.265,18 16.52,17.895 16.707,17.707C16.895,17.52 17,17.265 17,17L17,8.914ZM13,7L13,9C13,9.552 13.448,10 14,10L16,10L16,17L8,17L8,7L13,7ZM14.5,15.5C14.5,15.776 14.276,16 14,16L10,16C9.724,16 9.5,15.776 9.5,15.5C9.5,15.224 9.724,15 10,15L14,15C14.276,15 14.5,15.224 14.5,15.5ZM14.5,13.5C14.5,13.776 14.276,14 14,14L10,14C9.724,14 9.5,13.776 9.5,13.5C9.5,13.224 9.724,13 10,13L14,13C14.276,13 14.5,13.224 14.5,13.5ZM14.5,11.5C14.5,11.776 14.276,12 14,12L10,12C9.724,12 9.5,11.776 9.5,11.5C9.5,11.224 9.724,11 10,11L14,11C14.276,11 14.5,11.224 14.5,11.5ZM12,9.5C12,9.633 11.947,9.76 11.854,9.854C11.76,9.947 11.633,10 11.5,10L10,10C9.867,10 9.74,9.947 9.646,9.854C9.553,9.76 9.5,9.633 9.5,9.5C9.5,9.367 9.553,9.24 9.646,9.146C9.74,9.053 9.867,9 10,9L11.5,9C11.633,9 11.76,9.053 11.854,9.146C11.947,9.24 12,9.367 12,9.5ZM16,9L14,9L14,7L16,9Z" style="fill:currentColor;fill-rule:nonzero;"/>
</svg>
