<?xml version="1.0" encoding="UTF-8" standalone="no"?>
<!DOCTYPE svg PUBLIC "-//W3C//DTD SVG 1.1//EN" "http://www.w3.org/Graphics/SVG/1.1/DTD/svg11.dtd">
<svg width="100%" height="100%" viewBox="0 0 16 16" version="1.1" xmlns="http://www.w3.org/2000/svg" xmlns:xlink="http://www.w3.org/1999/xlink" xml:space="preserve" xmlns:serif="http://www.serif.com/" style="fill-rule:evenodd;clip-rule:evenodd;stroke-linejoin:round;stroke-miterlimit:2;">
    <g>
        <path d="M8,0C12.415,0 16,3.585 16,8C16,12.415 12.415,16 8,16C3.585,16 0,12.415 0,8C0,3.585 3.585,0 8,0ZM8,1C4.137,1 1,4.137 1,8C1,11.863 4.137,15 8,15C11.863,15 15,11.863 15,8C15,4.137 11.863,1 8,1ZM7.011,12.226C7.011,11.96 7.094,11.745 7.262,11.581C7.43,11.416 7.656,11.334 7.942,11.334C8.232,11.334 8.46,11.418 8.628,11.587C8.796,11.756 8.88,11.969 8.88,12.226C8.88,12.474 8.798,12.682 8.635,12.848C8.472,13.015 8.241,13.098 7.942,13.098C7.643,13.098 7.413,13.015 7.252,12.848C7.091,12.682 7.011,12.474 7.011,12.226ZM7.126,10.119C7.126,9.517 7.201,9.037 7.35,8.679C7.5,8.321 7.796,7.928 8.237,7.5C8.679,7.072 8.959,6.768 9.077,6.587C9.258,6.311 9.349,6.013 9.349,5.692C9.349,5.268 9.243,4.943 9.032,4.72C8.822,4.496 8.513,4.384 8.105,4.384C7.715,4.384 7.401,4.494 7.164,4.712C6.926,4.931 6.807,5.228 6.807,5.602L5.155,5.602C5.164,4.8 5.437,4.166 5.974,3.7C6.511,3.233 7.221,3 8.105,3C9.015,3 9.726,3.231 10.235,3.693C10.745,4.155 11,4.8 11,5.629C11,6.367 10.656,7.094 9.967,7.809L9.131,8.631C8.832,8.971 8.678,9.467 8.669,10.119L7.126,10.119Z" style="fill:currentColor;"/>
    </g>
</svg>
