<?xml version="1.0" encoding="UTF-8" standalone="no"?>
<!DOCTYPE svg PUBLIC "-//W3C//DTD SVG 1.1//EN" "http://www.w3.org/Graphics/SVG/1.1/DTD/svg11.dtd">
<svg width="100%" height="100%" viewBox="0 0 14 14" version="1.1" xmlns="http://www.w3.org/2000/svg" xmlns:xlink="http://www.w3.org/1999/xlink" xml:space="preserve" xmlns:serif="http://www.serif.com/" style="fill-rule:evenodd;clip-rule:evenodd;stroke-linejoin:round;stroke-miterlimit:2;">
    <g>
        <path d="M10,4L14,4L14,14L4,14L4,10L0,10L0,0L10,0L10,4ZM10,8L10,6L8,6L8,8L6,8L6,10L8,10L8,12L10,12L10,10L12,10L12,8L10,8ZM8,4L8,2L2,2L2,8L4,8L4,4L8,4Z" style="fill:currentColor;"/>
    </g>
</svg>
