<?xml version="1.0" encoding="UTF-8" standalone="no"?>
<!DOCTYPE svg PUBLIC "-//W3C//DTD SVG 1.1//EN" "http://www.w3.org/Graphics/SVG/1.1/DTD/svg11.dtd">
<svg width="100%" height="100%" viewBox="0 0 14 14" version="1.1" xmlns="http://www.w3.org/2000/svg" xmlns:xlink="http://www.w3.org/1999/xlink" xml:space="preserve" xmlns:serif="http://www.serif.com/" style="fill-rule:evenodd;clip-rule:evenodd;stroke-linejoin:round;stroke-miterlimit:2;">
    <g>
        <path d="M12.561,6.126L11.372,5.928C11.286,5.575 11.16,5.237 10.996,4.922L11.757,3.979C11.918,3.779 11.911,3.492 11.741,3.3L11.268,2.768C11.096,2.575 10.812,2.535 10.596,2.672L9.579,3.311C9.132,2.999 8.625,2.768 8.079,2.634L7.88,1.439C7.838,1.185 7.62,1 7.362,1L6.65,1C6.393,1 6.174,1.185 6.133,1.439L5.933,2.634C5.481,2.745 5.058,2.923 4.671,3.158L3.704,2.468C3.496,2.319 3.21,2.343 3.028,2.525L2.525,3.028C2.343,3.21 2.32,3.496 2.469,3.704L3.161,4.673C2.928,5.057 2.751,5.478 2.641,5.925L1.439,6.126C1.186,6.168 1,6.387 1,6.644L1,7.356C1,7.613 1.186,7.832 1.439,7.874L2.641,8.075C2.731,8.443 2.863,8.795 3.038,9.121L2.281,10.059C2.12,10.259 2.126,10.545 2.297,10.738L2.769,11.27C2.941,11.463 3.225,11.503 3.442,11.366L4.473,10.718C4.91,11.017 5.403,11.236 5.933,11.366L6.133,12.561C6.174,12.815 6.393,13 6.65,13L7.362,13C7.62,13 7.838,12.815 7.88,12.561L8.079,11.366C8.526,11.257 8.943,11.082 9.326,10.85L10.334,11.57C10.542,11.719 10.828,11.696 11.01,11.514L11.513,11.01C11.695,10.829 11.719,10.543 11.569,10.334L10.851,9.329C11.085,8.944 11.263,8.522 11.373,8.072L12.561,7.874C12.815,7.832 13,7.613 13,7.356L13,6.644C12.999,6.387 12.815,6.168 12.561,6.126ZM7.019,9.795C5.475,9.795 4.224,8.544 4.224,7C4.224,5.456 5.475,4.205 7.019,4.205C8.562,4.205 9.814,5.456 9.814,7C9.814,8.544 8.562,9.795 7.019,9.795Z" style="fill:currentColor"/>
    </g>
</svg>
