<?xml version="1.0" encoding="UTF-8" standalone="no"?>
<!DOCTYPE svg PUBLIC "-//W3C//DTD SVG 1.1//EN" "http://www.w3.org/Graphics/SVG/1.1/DTD/svg11.dtd">
<svg width="100%" height="100%" viewBox="0 0 24 24" version="1.1" xmlns="http://www.w3.org/2000/svg" xmlns:xlink="http://www.w3.org/1999/xlink" xml:space="preserve" xmlns:serif="http://www.serif.com/" style="fill-rule:evenodd;clip-rule:evenodd;stroke-linejoin:round;stroke-miterlimit:2;">
    <g transform="matrix(1,0,0,1,1,1)">
        <path d="M21.195,9.398L19.016,9.035C18.857,8.387 18.626,7.768 18.326,7.191L19.721,5.461C20.017,5.095 20.004,4.569 19.691,4.216L18.825,3.241C18.51,2.888 17.989,2.814 17.592,3.065L15.728,4.236C14.908,3.664 13.98,3.241 12.978,2.995L12.614,0.804C12.537,0.34 12.136,0 11.664,0L10.358,0C9.888,0 9.485,0.34 9.41,0.804L9.044,2.996C8.216,3.199 7.439,3.526 6.731,3.957L4.958,2.692C4.576,2.419 4.051,2.462 3.718,2.795L2.795,3.718C2.463,4.052 2.42,4.576 2.694,4.958L3.961,6.734C3.534,7.437 3.21,8.209 3.008,9.03L0.804,9.398C0.341,9.475 0,9.876 0,10.347L0,11.653C0,12.124 0.341,12.525 0.804,12.602L3.008,12.97C3.174,13.645 3.416,14.29 3.737,14.889L2.349,16.609C2.053,16.974 2.065,17.5 2.378,17.853L3.244,18.828C3.558,19.182 4.08,19.255 4.477,19.004L6.368,17.817C7.168,18.364 8.073,18.766 9.044,19.004L9.41,21.196C9.485,21.66 9.888,22 10.358,22L11.664,22C12.136,22 12.537,21.66 12.614,21.196L12.979,19.004C13.797,18.804 14.563,18.483 15.265,18.059L17.112,19.378C17.493,19.652 18.018,19.609 18.351,19.275L19.274,18.352C19.607,18.019 19.652,17.495 19.376,17.112L18.061,15.269C18.489,14.564 18.815,13.79 19.017,12.966L21.196,12.602C21.66,12.525 22,12.124 22,11.653L22,10.347C21.999,9.876 21.66,9.475 21.195,9.398ZM11.632,1L11.992,3.159C12.057,3.554 12.352,3.871 12.74,3.967C13.62,4.182 14.435,4.553 15.155,5.056C15.485,5.286 15.92,5.297 16.26,5.083L18.098,3.928L18.923,4.857L17.547,6.563C17.298,6.872 17.255,7.3 17.439,7.653C17.703,8.16 17.905,8.703 18.044,9.272C18.139,9.661 18.457,9.955 18.851,10.021L21,10.379L21,11.621L18.852,11.979C18.457,12.045 18.14,12.34 18.045,12.728C17.868,13.452 17.582,14.131 17.206,14.75C16.999,15.092 17.015,15.524 17.247,15.85L18.544,17.668L17.667,18.545L15.847,17.245C15.522,17.013 15.091,16.997 14.749,17.203C14.132,17.575 13.459,17.857 12.741,18.033C12.353,18.128 12.058,18.445 11.993,18.84L11.632,21L10.391,21L10.03,18.839C9.964,18.445 9.67,18.128 9.282,18.033C8.429,17.824 7.634,17.472 6.932,16.991C6.604,16.766 6.173,16.758 5.836,16.97L3.971,18.141L3.146,17.212L4.515,15.517C4.768,15.204 4.808,14.77 4.618,14.416C4.336,13.89 4.125,13.323 3.979,12.73C3.883,12.343 3.566,12.049 3.172,11.983L1,11.621L1,10.379L3.172,10.017C3.566,9.951 3.883,9.657 3.979,9.27C4.157,8.549 4.441,7.871 4.816,7.253C5.024,6.911 5.008,6.478 4.775,6.153L3.525,4.402L4.402,3.524L6.15,4.771C6.475,5.004 6.908,5.02 7.25,4.811C7.872,4.433 8.554,4.145 9.282,3.967C9.67,3.872 9.964,3.555 10.03,3.161L10.391,1L11.632,1ZM11.035,16.125C13.864,16.125 16.159,13.83 16.159,11C16.159,8.17 13.864,5.875 11.035,5.875C8.205,5.875 5.91,8.17 5.91,11C5.91,13.83 8.205,16.125 11.035,16.125ZM11.035,15.125C8.757,15.125 6.91,13.277 6.91,11C6.91,8.722 8.757,6.875 11.035,6.875C13.312,6.875 15.159,8.722 15.159,11C15.159,13.277 13.312,15.125 11.035,15.125Z" style="fill:currentColor;"/>
    </g>
</svg>
