<?xml version="1.0" encoding="UTF-8" standalone="no"?>
<!DOCTYPE svg PUBLIC "-//W3C//DTD SVG 1.1//EN" "http://www.w3.org/Graphics/SVG/1.1/DTD/svg11.dtd">
<svg width="100%" height="100%" viewBox="0 0 14 14" version="1.1" xmlns="http://www.w3.org/2000/svg" xmlns:xlink="http://www.w3.org/1999/xlink" xml:space="preserve" xmlns:serif="http://www.serif.com/" style="fill-rule:evenodd;clip-rule:evenodd;stroke-linejoin:round;stroke-miterlimit:2;">
    <g>
        <path d="M3,6C3.552,6 4,6.448 4,7C4,7.552 3.552,8 3,8C2.448,8 2,7.552 2,7C2,6.448 2.448,6 3,6ZM7,6C7.552,6 8,6.448 8,7C8,7.552 7.552,8 7,8C6.448,8 6,7.552 6,7C6,6.448 6.448,6 7,6ZM11,6C11.552,6 12,6.448 12,7C12,7.552 11.552,8 11,8C10.448,8 10,7.552 10,7C10,6.448 10.448,6 11,6Z" style="fill:currentColor;"/>
    </g>
</svg>
