<?xml version="1.0" encoding="UTF-8" standalone="no"?>
<!DOCTYPE svg PUBLIC "-//W3C//DTD SVG 1.1//EN" "http://www.w3.org/Graphics/SVG/1.1/DTD/svg11.dtd">
<svg width="100%" height="100%" viewBox="0 0 14 14" version="1.1" xmlns="http://www.w3.org/2000/svg" xmlns:xlink="http://www.w3.org/1999/xlink" xml:space="preserve" xmlns:serif="http://www.serif.com/" style="fill-rule:evenodd;clip-rule:evenodd;stroke-linejoin:round;stroke-miterlimit:2;">
    <path d="M10,14L10,11.964C10,10.879 10.879,10 11.964,10L14,10L14,8L10.75,8C9.231,8 8,9.231 8,10.75L8,14L10,14ZM14,4L11.964,4C10.879,4 10,3.121 10,2.036L10,0L8,0L8,3.25C8,4.769 9.231,6 10.75,6L14,6L14,4ZM4,0L4,2.036C4,3.121 3.121,4 2.036,4L0,4L0,6L3.25,6C4.769,6 6,4.769 6,3.25L6,0L4,0ZM0,10L2.036,10C3.121,10 4,10.879 4,11.964L4,14L6,14L6,10.75C6,9.231 4.769,8 3.25,8L0,8L0,10Z" style="fill:currentColor;fill-rule:nonzero;"/>
</svg>
