<?xml version="1.0" encoding="UTF-8" standalone="no"?>
<!DOCTYPE svg PUBLIC "-//W3C//DTD SVG 1.1//EN" "http://www.w3.org/Graphics/SVG/1.1/DTD/svg11.dtd">
<svg width="100%" height="100%" viewBox="0 0 24 24" version="1.1" xmlns="http://www.w3.org/2000/svg" xmlns:xlink="http://www.w3.org/1999/xlink" xml:space="preserve" xmlns:serif="http://www.serif.com/" style="fill-rule:evenodd;clip-rule:evenodd;stroke-linejoin:round;stroke-miterlimit:2;">
    <path d="M0,2L0,22L24,22L24,2L0,2ZM1,3L23,3L23,21L1,21L1,3ZM11.02,6C11.146,6.006 11.265,6.058 11.354,6.146C11.447,6.24 11.5,6.367 11.5,6.5C11.5,6.633 11.447,6.76 11.354,6.854C11.262,6.945 11.138,6.998 11.009,7L7,7L7,17L17,17L17,13C17,12.867 17.053,12.74 17.146,12.646C17.24,12.553 17.367,12.5 17.5,12.5C17.776,12.5 18,12.724 18,13C18,14.046 18,16.454 18,17.5C18,17.776 17.776,18 17.5,18C15.548,18 8.452,18 6.5,18C6.367,18 6.24,17.947 6.146,17.854C6.053,17.76 6,17.633 6,17.5L6,6.5C6,6.224 6.224,6 6.5,6L11.02,6ZM18,10.5C18,10.776 17.776,11 17.5,11C17.224,11 17,10.776 17,10.5C17,9.579 17,7.707 17,7.707C17,7.707 13.792,10.915 12.707,12C12.512,12.195 12.195,12.195 12,12C11.805,11.805 11.805,11.488 12,11.293C13.085,10.208 16.293,7 16.293,7L13.5,7C13.224,7 13,6.776 13,6.5C13,6.224 13.224,6 13.5,6C14.458,6 16.542,6 17.5,6C17.776,6 18,6.224 18,6.5L18,10.5Z" style="fill:currentColor;fill-rule:nonzero;"/>
</svg>
