<?xml version="1.0" encoding="UTF-8" standalone="no"?>
<!DOCTYPE svg PUBLIC "-//W3C//DTD SVG 1.1//EN" "http://www.w3.org/Graphics/SVG/1.1/DTD/svg11.dtd">
<svg width="100%" height="100%" viewBox="0 0 14 14" version="1.1" xmlns="http://www.w3.org/2000/svg" xmlns:xlink="http://www.w3.org/1999/xlink" xml:space="preserve" xmlns:serif="http://www.serif.com/" style="fill-rule:evenodd;clip-rule:evenodd;stroke-linejoin:round;stroke-miterlimit:2;">
    <path d="M7,0C10.863,0 14,3.137 14,7C14,10.863 10.863,14 7,14C3.137,14 0,10.863 0,7C0,3.137 3.137,0 7,0ZM7,2C4.24,2 2,4.24 2,7C2,9.76 4.24,12 7,12C9.76,12 12,9.76 12,7C12,4.24 9.76,2 7,2ZM10,7L5,4L5,10L10,7Z" style="fill:currentColor;"/>
</svg>
