<?xml version="1.0" encoding="UTF-8" standalone="no"?>
<!DOCTYPE svg PUBLIC "-//W3C//DTD SVG 1.1//EN" "http://www.w3.org/Graphics/SVG/1.1/DTD/svg11.dtd">
<svg width="100%" height="100%" viewBox="0 0 14 14" version="1.1" xmlns="http://www.w3.org/2000/svg" xmlns:xlink="http://www.w3.org/1999/xlink" xml:space="preserve" xmlns:serif="http://www.serif.com/" style="fill-rule:evenodd;clip-rule:evenodd;stroke-linejoin:round;stroke-miterlimit:2;">
    <path d="M13.797,8.679C13.712,8.71 11.856,8.198 11.856,8.198L11.855,8.198C11.318,10.38 9.347,12 7,12C5.62,12 4.37,11.44 3.465,10.535L6,8L0,8L0,14L2.051,11.949C3.318,13.216 5.068,14 7,14C10.284,14 13.044,11.732 13.797,8.679ZM0.203,5.321C0.956,2.268 3.716,0 7,0C8.932,0 10.682,0.784 11.949,2.051L14,0L14,6L8,6L10.535,3.465C9.63,2.56 8.38,2 7,2C4.653,2 2.682,3.62 2.145,5.802L2.144,5.802C2.144,5.802 0.288,5.29 0.203,5.321Z"/>
</svg>
