<?xml version="1.0" encoding="UTF-8" standalone="no"?>
<!DOCTYPE svg PUBLIC "-//W3C//DTD SVG 1.1//EN" "http://www.w3.org/Graphics/SVG/1.1/DTD/svg11.dtd">
<svg width="100%" height="100%" viewBox="0 0 14 14" version="1.1" xmlns="http://www.w3.org/2000/svg" xmlns:xlink="http://www.w3.org/1999/xlink" xml:space="preserve" xmlns:serif="http://www.serif.com/" style="fill-rule:evenodd;clip-rule:evenodd;stroke-linejoin:round;stroke-miterlimit:2;">
    <g transform="matrix(1,0,0,1,-987,-108)">
        <path d="M997.535,111.465L995,114L1001,114L1001,108L998.949,110.051C997.682,108.784 995.932,108 994,108C990.137,108 987,111.137 987,115C987,118.863 990.137,122 994,122C997.286,122 1000.05,119.731 1000.8,116.676L998.856,116.198C998.318,118.38 996.347,120 994,120C991.24,120 989,117.76 989,115C989,112.24 991.24,110 994,110C995.38,110 996.63,110.56 997.535,111.465Z" style="fill:currentColor;"/>
    </g>
</svg>
