<?xml version="1.0" encoding="UTF-8" standalone="no"?>
<!DOCTYPE svg PUBLIC "-//W3C//DTD SVG 1.1//EN" "http://www.w3.org/Graphics/SVG/1.1/DTD/svg11.dtd">
<svg width="100%" height="100%" viewBox="0 0 24 24" version="1.1" xmlns="http://www.w3.org/2000/svg" xmlns:xlink="http://www.w3.org/1999/xlink" xml:space="preserve" xmlns:serif="http://www.serif.com/" style="fill-rule:evenodd;clip-rule:evenodd;stroke-linejoin:round;stroke-miterlimit:2;">
    <path d="M0,2L0,22L24,22L24,2L0,2ZM1,3L23,3L23,21L1,21L1,3Z" style="fill:currentColor;fill-rule:nonzero;"/>
    <path d="M20,7.5C20,7.367 19.947,7.24 19.854,7.146C19.76,7.053 19.633,7 19.5,7C18.542,7 16.458,7 15.5,7C15.367,7 15.24,7.053 15.146,7.146C15.053,7.24 15,7.367 15,7.5C15,9.207 15,14.793 15,16.5C15,16.633 15.053,16.76 15.146,16.854C15.24,16.947 15.367,17 15.5,17C16.458,17 18.542,17 19.5,17C19.633,17 19.76,16.947 19.854,16.854C19.947,16.76 20,16.633 20,16.5C20,14.793 20,9.207 20,7.5ZM19,8L19,16L16,16L16,8L19,8Z" style="fill:currentColor;"/>
    <g transform="matrix(1,0,0,1,-10,0)">
        <path d="M23,7.5C23,7.367 22.947,7.24 22.854,7.146C22.76,7.053 22.633,7 22.5,7C20.925,7 16.075,7 14.5,7C14.367,7 14.24,7.053 14.146,7.146C14.053,7.24 14,7.367 14,7.5C14,8.269 14,9.731 14,10.5C14,10.633 14.053,10.76 14.146,10.854C14.24,10.947 14.367,11 14.5,11C16.075,11 20.925,11 22.5,11C22.633,11 22.76,10.947 22.854,10.854C22.947,10.76 23,10.633 23,10.5C23,9.731 23,8.269 23,7.5ZM22,8L22,10L15,10L15,8L22,8Z" style="fill:currentColor;"/>
    </g>
    <g transform="matrix(1,0,0,1,-10,5)">
        <path d="M23,8.5C23,8.367 22.947,8.24 22.854,8.146C22.76,8.053 22.633,8 22.5,8C20.925,8 16.075,8 14.5,8C14.367,8 14.24,8.053 14.146,8.146C14.053,8.24 14,8.367 14,8.5C14,9.269 14,10.731 14,11.5C14,11.633 14.053,11.76 14.146,11.854C14.24,11.947 14.367,12 14.5,12C16.075,12 20.925,12 22.5,12C22.633,12 22.76,11.947 22.854,11.854C22.947,11.76 23,11.633 23,11.5C23,10.731 23,9.269 23,8.5ZM22,9L22,11L15,11L15,9L22,9Z" style="fill:currentColor;"/>
    </g>
</svg>
