<?xml version="1.0" encoding="UTF-8" standalone="no"?>
<!DOCTYPE svg PUBLIC "-//W3C//DTD SVG 1.1//EN" "http://www.w3.org/Graphics/SVG/1.1/DTD/svg11.dtd">
<svg width="100%" height="100%" viewBox="0 0 14 14" version="1.1" xmlns="http://www.w3.org/2000/svg" xmlns:xlink="http://www.w3.org/1999/xlink" xml:space="preserve" xmlns:serif="http://www.serif.com/" style="fill-rule:evenodd;clip-rule:evenodd;stroke-linejoin:round;stroke-miterlimit:2;">
    <g>
        <path d="M8.757,10.171C7.966,10.695 7.019,11 6,11C3.24,11 1,8.76 1,6C1,3.24 3.24,1 6,1C8.76,1 11,3.24 11,6C11,7.019 10.695,7.966 10.171,8.757L13,11.586L11.586,13L8.757,10.171ZM6,3C4.344,3 3,4.344 3,6C3,7.656 4.344,9 6,9C7.656,9 9,7.656 9,6C9,4.344 7.656,3 6,3Z" style="fill:currentColor"/>
    </g>
</svg>
