<?xml version="1.0" encoding="UTF-8" standalone="no"?>
<!DOCTYPE svg PUBLIC "-//W3C//DTD SVG 1.1//EN" "http://www.w3.org/Graphics/SVG/1.1/DTD/svg11.dtd">
<svg width="100%" height="100%" viewBox="0 0 24 24" version="1.1" xmlns="http://www.w3.org/2000/svg" xmlns:xlink="http://www.w3.org/1999/xlink" xml:space="preserve" xmlns:serif="http://www.serif.com/" style="fill-rule:evenodd;clip-rule:evenodd;stroke-linejoin:round;stroke-miterlimit:2;">
    <path d="M0,2L0,22L24,22L24,2L0,2ZM1,3L23,3L23,21L1,21L1,3ZM20,10.5C20,10.367 19.947,10.24 19.854,10.146C19.76,10.053 19.633,10 19.5,10L17.5,10C17.367,10 17.24,10.053 17.146,10.146C17.053,10.24 17,10.367 17,10.5L17,12.5C17,12.633 17.053,12.76 17.146,12.854C17.24,12.947 17.367,13 17.5,13L19.5,13C19.633,13 19.76,12.947 19.854,12.854C19.947,12.76 20,12.633 20,12.5L20,10.5ZM16,10.5C16,10.367 15.947,10.24 15.854,10.146C15.76,10.053 15.633,10 15.5,10L4.5,10C4.367,10 4.24,10.053 4.146,10.146C4.053,10.24 4,10.367 4,10.5L4,12.5C4,12.633 4.053,12.76 4.146,12.854C4.24,12.947 4.367,13 4.5,13L15.5,13C15.633,13 15.76,12.947 15.854,12.854C15.947,12.76 16,12.633 16,12.5L16,10.5ZM19,11L19,12L18,12L18,11L19,11ZM15,11L15,12L5,12L5,11L15,11Z" style="fill:currentColor;fill-rule:nonzero;"/>
</svg>
