<?xml version="1.0" encoding="UTF-8" standalone="no"?>
<!DOCTYPE svg PUBLIC "-//W3C//DTD SVG 1.1//EN" "http://www.w3.org/Graphics/SVG/1.1/DTD/svg11.dtd">
<svg width="100%" height="100%" viewBox="0 0 24 24" version="1.1" xmlns="http://www.w3.org/2000/svg" xmlns:xlink="http://www.w3.org/1999/xlink" xml:space="preserve" xmlns:serif="http://www.serif.com/" style="fill-rule:evenodd;clip-rule:evenodd;stroke-linejoin:round;stroke-miterlimit:2;">
    <path d="M23,17.836C23,17.571 22.895,17.316 22.707,17.129C22.52,16.941 22.265,16.836 22,16.836C19.273,16.836 12.727,16.836 10,16.836C9.735,16.836 9.48,16.941 9.293,17.129C9.105,17.316 9,17.571 9,17.836C9,18.101 9.105,18.356 9.293,18.543C9.48,18.731 9.735,18.836 10,18.836C12.727,18.836 19.273,18.836 22,18.836C22.265,18.836 22.52,18.731 22.707,18.543C22.895,18.356 23,18.101 23,17.836ZM6.954,11.468C6.954,11.468 2.951,15.471 1.293,17.13C0.902,17.52 0.902,18.152 1.293,18.542C1.293,18.543 1.293,18.543 1.294,18.543C1.481,18.731 1.735,18.836 2,18.836C2.265,18.836 2.52,18.731 2.707,18.543C4.186,17.063 7.593,13.652 9.072,12.171C9.462,11.781 9.462,11.148 9.072,10.757C7.593,9.278 4.187,5.872 2.708,4.393C2.317,4.003 1.684,4.003 1.293,4.393C1.106,4.581 1,4.835 1,5.1C1,5.365 1.106,5.62 1.293,5.807C2.952,7.466 6.954,11.468 6.954,11.468Z" style="fill:currentColor;"/>
</svg>
