<?xml version="1.0" encoding="UTF-8" standalone="no"?>
<!DOCTYPE svg PUBLIC "-//W3C//DTD SVG 1.1//EN" "http://www.w3.org/Graphics/SVG/1.1/DTD/svg11.dtd">
<svg width="100%" height="100%" viewBox="0 0 24 24" version="1.1" xmlns="http://www.w3.org/2000/svg" xmlns:xlink="http://www.w3.org/1999/xlink" xml:space="preserve" xmlns:serif="http://www.serif.com/" style="fill-rule:evenodd;clip-rule:evenodd;stroke-linejoin:round;stroke-miterlimit:2;">
    <path d="M0,2L0,22L24,22L24,2L0,2ZM1,3L23,3L23,21L1,21L1,3ZM17,15.068C17,14.935 16.947,14.808 16.854,14.714C16.76,14.621 16.633,14.568 16.5,14.568C15.136,14.568 11.864,14.568 10.5,14.568C10.367,14.568 10.24,14.621 10.146,14.714C10.053,14.808 10,14.935 10,15.068C10,15.201 10.053,15.328 10.146,15.421C10.24,15.515 10.367,15.568 10.5,15.568C11.864,15.568 15.136,15.568 16.5,15.568C16.633,15.568 16.76,15.515 16.854,15.421C16.947,15.328 17,15.201 17,15.068ZM8.977,11.884C8.977,11.884 6.975,13.886 6.146,14.715C5.951,14.91 5.951,15.226 6.146,15.421C6.146,15.421 6.147,15.421 6.147,15.422C6.241,15.515 6.368,15.568 6.5,15.568C6.633,15.568 6.76,15.515 6.853,15.421C7.593,14.681 9.297,12.976 10.036,12.236C10.231,12.04 10.231,11.724 10.036,11.529C9.296,10.789 7.593,9.086 6.854,8.346C6.658,8.151 6.342,8.151 6.147,8.346C6.053,8.44 6,8.567 6,8.7C6,8.833 6.053,8.96 6.147,9.054C6.976,9.883 8.977,11.884 8.977,11.884Z" style="fill:currentColor;fill-rule:nonzero;"/>
</svg>
