<?xml version="1.0" encoding="UTF-8" standalone="no"?>
<!DOCTYPE svg PUBLIC "-//W3C//DTD SVG 1.1//EN" "http://www.w3.org/Graphics/SVG/1.1/DTD/svg11.dtd">
<svg width="100%" height="100%" viewBox="0 0 24 24" version="1.1" xmlns="http://www.w3.org/2000/svg" xmlns:xlink="http://www.w3.org/1999/xlink" xml:space="preserve" xmlns:serif="http://www.serif.com/" style="fill-rule:evenodd;clip-rule:evenodd;stroke-linejoin:round;stroke-miterlimit:2;">
    <path d="M0,2L0,22L24,22L24,2L0,2ZM1,3L23,3L23,21L1,21L1,3ZM8.595,11.953C8.595,11.953 5.13,15.419 3.997,16.551C3.802,16.746 3.802,17.063 3.997,17.258C4.192,17.454 4.509,17.454 4.704,17.258C5.717,16.246 8.619,13.343 9.644,12.318C9.845,12.118 9.845,11.792 9.644,11.591C8.619,10.565 5.711,7.656 4.701,6.646C4.608,6.553 4.482,6.5 4.351,6.5C4.219,6.5 4.093,6.553 4,6.646C3.999,6.647 3.998,6.648 3.997,6.649C3.802,6.844 3.802,7.16 3.997,7.356C5.13,8.488 8.595,11.953 8.595,11.953ZM20,16.795C20,16.662 19.947,16.535 19.854,16.441C19.76,16.348 19.633,16.295 19.5,16.295L10.508,16.295C10.375,16.295 10.248,16.348 10.154,16.441C10.06,16.535 10.008,16.662 10.008,16.795C10.008,16.928 10.06,17.055 10.154,17.149C10.248,17.242 10.375,17.295 10.508,17.295L19.5,17.295C19.633,17.295 19.76,17.242 19.854,17.149C19.947,17.055 20,16.928 20,16.795Z" style="fill:currentColor;fill-rule:nonzero;"/>
</svg>
