<?xml version="1.0" encoding="UTF-8" standalone="no"?>
<!DOCTYPE svg PUBLIC "-//W3C//DTD SVG 1.1//EN" "http://www.w3.org/Graphics/SVG/1.1/DTD/svg11.dtd">
<svg width="100%" height="100%" viewBox="0 0 24 24" version="1.1" xmlns="http://www.w3.org/2000/svg" xmlns:xlink="http://www.w3.org/1999/xlink" xml:space="preserve" xmlns:serif="http://www.serif.com/" style="fill-rule:evenodd;clip-rule:evenodd;stroke-linejoin:round;stroke-miterlimit:2;">
    <path d="M10.041,0.001C10.291,0.011 10.529,0.115 10.707,0.293C10.895,0.48 11,0.735 11,1C11,1.265 10.895,1.52 10.707,1.707C10.524,1.89 10.276,1.995 10.018,2L2,2L2,22L22,22L22,14C22,13.735 22.105,13.48 22.293,13.293C22.48,13.105 22.735,13 23,13C23.552,13 24,13.448 24,14C24,16.092 24,20.908 24,23C24,23.552 23.552,24 23,24C19.096,24 4.904,24 1,24C0.735,24 0.48,23.895 0.293,23.707C0.105,23.52 0,23.265 -0,23L0,1C-0,0.448 0.448,0 1,0L10.041,0L10.041,0.001ZM24,9C24,9.552 23.552,10 23,10C22.448,10 22,9.552 22,9C22,7.158 22,3.414 22,3.414C22,3.414 15.584,9.83 13.414,12C13.024,12.391 12.391,12.391 12,12C11.609,11.609 11.609,10.976 12,10.586C14.17,8.416 20.586,2 20.586,2L15,2C14.448,2 14,1.552 14,1C14,0.448 14.448,0 15,0C16.916,-0 21.084,-0 23,-0C23.552,0 24,0.448 24,1L24,9Z" style="fill:currentColor;"/>
</svg>
