<?xml version="1.0" encoding="UTF-8" standalone="no"?>
<!DOCTYPE svg PUBLIC "-//W3C//DTD SVG 1.1//EN" "http://www.w3.org/Graphics/SVG/1.1/DTD/svg11.dtd">
<svg width="100%" height="100%" viewBox="0 0 24 24" version="1.1" xmlns="http://www.w3.org/2000/svg" xmlns:xlink="http://www.w3.org/1999/xlink" xml:space="preserve" xmlns:serif="http://www.serif.com/" style="fill-rule:evenodd;clip-rule:evenodd;stroke-linejoin:round;stroke-miterlimit:2;">
    <path d="M0,2L0,22L24,22L24,2L0,2ZM1,3L23,3L23,21L1,21L1,3ZM13,13.5C13,13.367 12.947,13.24 12.854,13.146C12.76,13.053 12.633,13 12.5,13L11.5,13C11.367,13 11.24,13.053 11.146,13.146C11.053,13.24 11,13.367 11,13.5L11,14.5C11,14.633 11.053,14.76 11.146,14.854C11.24,14.947 11.367,15 11.5,15L12.5,15C12.633,15 12.76,14.947 12.854,14.854C12.947,14.76 13,14.633 13,14.5L13,13.5ZM6,9.5C6,9.367 5.947,9.24 5.854,9.146C5.76,9.053 5.633,9 5.5,9L3.5,9C3.367,9 3.24,9.053 3.146,9.146C3.053,9.24 3,9.367 3,9.5L3,14.5C3,14.633 3.053,14.76 3.146,14.854C3.24,14.947 3.367,15 3.5,15L5.5,15C5.633,15 5.76,14.947 5.854,14.854C5.947,14.76 6,14.633 6,14.5L6,9.5ZM10,9.5C10,9.367 9.947,9.24 9.854,9.146C9.76,9.053 9.633,9 9.5,9L7.5,9C7.367,9 7.24,9.053 7.146,9.146C7.053,9.24 7,9.367 7,9.5L7,14.5C7,14.633 7.053,14.76 7.146,14.854C7.24,14.947 7.367,15 7.5,15L9.5,15C9.633,15 9.76,14.947 9.854,14.854C9.947,14.76 10,14.633 10,14.5L10,9.5ZM17,9.5C17,9.367 16.947,9.24 16.854,9.146C16.76,9.053 16.633,9 16.5,9L14.5,9C14.367,9 14.24,9.053 14.146,9.146C14.053,9.24 14,9.367 14,9.5L14,14.5C14,14.633 14.053,14.76 14.146,14.854C14.24,14.947 14.367,15 14.5,15L16.5,15C16.633,15 16.76,14.947 16.854,14.854C16.947,14.76 17,14.633 17,14.5L17,9.5ZM21,9.5C21,9.367 20.947,9.24 20.854,9.146C20.76,9.053 20.633,9 20.5,9L18.5,9C18.367,9 18.24,9.053 18.146,9.146C18.053,9.24 18,9.367 18,9.5L18,14.5C18,14.633 18.053,14.76 18.146,14.854C18.24,14.947 18.367,15 18.5,15L20.5,15C20.633,15 20.76,14.947 20.854,14.854C20.947,14.76 21,14.633 21,14.5L21,9.5ZM5,10L5,14L4,14L4,10L5,10ZM9,10L9,14L8,14L8,10L9,10ZM16,10L16,14L15,14L15,10L16,10ZM20,10L20,14L19,14L19,10L20,10ZM13,9.5C13,9.367 12.947,9.24 12.854,9.146C12.76,9.053 12.633,9 12.5,9L11.5,9C11.367,9 11.24,9.053 11.146,9.146C11.053,9.24 11,9.367 11,9.5L11,10.5C11,10.633 11.053,10.76 11.146,10.854C11.24,10.947 11.367,11 11.5,11L12.5,11C12.633,11 12.76,10.947 12.854,10.854C12.947,10.76 13,10.633 13,10.5L13,9.5Z" style="fill:currentColor;fill-rule:nonzero;"/>
</svg>
