<?xml version="1.0" encoding="UTF-8" standalone="no"?>
<!DOCTYPE svg PUBLIC "-//W3C//DTD SVG 1.1//EN" "http://www.w3.org/Graphics/SVG/1.1/DTD/svg11.dtd">
<svg width="100%" height="100%" viewBox="0 0 24 24" version="1.1" xmlns="http://www.w3.org/2000/svg" xmlns:xlink="http://www.w3.org/1999/xlink" xml:space="preserve" xmlns:serif="http://www.serif.com/" style="fill-rule:evenodd;clip-rule:evenodd;stroke-linejoin:round;stroke-miterlimit:2;">
    <path d="M0,2L0,22L24,22L24,2L0,2ZM1,3L23,3L23,21L1,21L1,3ZM7,14.5C7,14.367 6.947,14.24 6.854,14.146C6.76,14.053 6.633,14 6.5,14L4.5,14C4.367,14 4.24,14.053 4.146,14.146C4.053,14.24 4,14.367 4,14.5L4,16.5C4,16.633 4.053,16.76 4.146,16.854C4.24,16.947 4.367,17 4.5,17L6.5,17C6.633,17 6.76,16.947 6.854,16.854C6.947,16.76 7,16.633 7,16.5L7,14.5ZM6,15L6,16L5,16L5,15L6,15ZM9.5,15C9.367,15 9.24,15.053 9.146,15.146C9.053,15.24 9,15.367 9,15.5C9,15.633 9.053,15.76 9.146,15.854C9.24,15.947 9.367,16 9.5,16L19.5,16C19.633,16 19.76,15.947 19.854,15.854C19.947,15.76 20,15.633 20,15.5C20,15.367 19.947,15.24 19.854,15.146C19.76,15.053 19.633,15 19.5,15L9.5,15ZM7,10.5C7,10.367 6.947,10.24 6.854,10.146C6.76,10.053 6.633,10 6.5,10L4.5,10C4.367,10 4.24,10.053 4.146,10.146C4.053,10.24 4,10.367 4,10.5L4,12.5C4,12.633 4.053,12.76 4.146,12.854C4.24,12.947 4.367,13 4.5,13L6.5,13C6.633,13 6.76,12.947 6.854,12.854C6.947,12.76 7,12.633 7,12.5L7,10.5ZM6,11L6,12L5,12L5,11L6,11ZM9.5,11C9.367,11 9.24,11.053 9.146,11.146C9.053,11.24 9,11.367 9,11.5C9,11.633 9.053,11.76 9.146,11.854C9.24,11.947 9.367,12 9.5,12L19.5,12C19.633,12 19.76,11.947 19.854,11.854C19.947,11.76 20,11.633 20,11.5C20,11.367 19.947,11.24 19.854,11.146C19.76,11.053 19.633,11 19.5,11L9.5,11ZM7,6.5C7,6.367 6.947,6.24 6.854,6.146C6.76,6.053 6.633,6 6.5,6L4.5,6C4.367,6 4.24,6.053 4.146,6.146C4.053,6.24 4,6.367 4,6.5L4,8.5C4,8.633 4.053,8.76 4.146,8.854C4.24,8.947 4.367,9 4.5,9L6.5,9C6.633,9 6.76,8.947 6.854,8.854C6.947,8.76 7,8.633 7,8.5L7,6.5ZM6,7L6,8L5,8L5,7L6,7ZM9.5,7C9.367,7 9.24,7.053 9.146,7.146C9.053,7.24 9,7.367 9,7.5C9,7.633 9.053,7.76 9.146,7.854C9.24,7.947 9.367,8 9.5,8L19.5,8C19.633,8 19.76,7.947 19.854,7.854C19.947,7.76 20,7.633 20,7.5C20,7.367 19.947,7.24 19.854,7.146C19.76,7.053 19.633,7 19.5,7L9.5,7Z" style="fill:currentColor;fill-rule:nonzero;"/>
</svg>
