<?xml version="1.0" encoding="UTF-8" standalone="no"?>
<!DOCTYPE svg PUBLIC "-//W3C//DTD SVG 1.1//EN" "http://www.w3.org/Graphics/SVG/1.1/DTD/svg11.dtd">
<svg width="100%" height="100%" viewBox="0 0 24 24" version="1.1" xmlns="http://www.w3.org/2000/svg" xmlns:xlink="http://www.w3.org/1999/xlink" xml:space="preserve" xmlns:serif="http://www.serif.com/" style="fill-rule:evenodd;clip-rule:evenodd;stroke-linejoin:round;stroke-miterlimit:2;">
    <path d="M1,3L23,3L23,21L1,21L1,3ZM0,2L0,22L24,22L24,2L0,2ZM4,16L4,17L20,17L20,16L4,16ZM4,13L4,14L20,14L20,13L4,13ZM4,10L4,11L20,11L20,10L4,10ZM4,7L4,8L20,8L20,7L4,7Z" style="fill:currentColor;fill-rule:nonzero;"/>
</svg>
